<svg xmlns="http://www.w3.org/2000/svg" width="1845" height="552" fill="none">
    <path fill="url(#a)"
        d="m631.384 255.074-13.845 11.523a1.345 1.345 0 0 0-.483 1.033 32.354 32.354 0 0 1-4.958 14.22l-1.029 1.603a38.304 38.304 0 0 0-4.234 8.981l-1.659 5.165a3.686 3.686 0 0 0 .958 3.785l.604.579.565.445a3.97 3.97 0 0 1 1.445 2.394c.137.734.485 1.409.955 1.99.667.825 1.356 1.823 1.251 2.245-.118.474-.543 1.341-.86 1.941a4.373 4.373 0 0 1-.496.736l-.319.387a3.511 3.511 0 0 0 .3 4.791l2.04 1.923a4.68 4.68 0 0 1 0 6.074l-2.65 3.135a2.709 2.709 0 0 0 .245 3.755l.494.451c.238.216.448.461.624.73l1.392 2.116c.275.417.599.808.957 1.157a6.881 6.881 0 0 1 2.082 4.906v.639a4.33 4.33 0 0 1-.535 2.085 4.332 4.332 0 0 0-.496 2.66l.123.92a7.153 7.153 0 0 0 2.338 4.395l1.076.956a11.039 11.039 0 0 1 3.126 4.723l.487 1.447a16.73 16.73 0 0 1 .774 3.489l.445 3.972a7.254 7.254 0 0 0 6.179 6.374l3.157.453a3.927 3.927 0 0 1 2.568 1.512 3.926 3.926 0 0 0 2.392 1.481l1.806.345a8.73 8.73 0 0 1 3.852 1.786l4.363 3.529a8.84 8.84 0 0 0 4.111 1.847 8.842 8.842 0 0 1 6.251 4.376l2.672 4.737a9.202 9.202 0 0 0 6.989 4.622 9.2 9.2 0 0 1 7.568 5.857l2.522 6.592a1.69 1.69 0 0 1-.708 2.053 1.69 1.69 0 0 0-.82 1.449v1.45c0 1.16.474 2.269 1.312 3.072l5.47 5.239a5.816 5.816 0 0 0 4.022 1.616 5.815 5.815 0 0 1 5.493 3.907l.104.3a6.264 6.264 0 0 0 4.806 4.108l3.358.605c.707.127 1.424.191 2.142.191h6.058l6.906-.522a8.52 8.52 0 0 1 4.561.932c.66.342 1.363.597 2.09.757l1.269.279c2.441.536 4.967.569 7.422.097l9.74-1.876 20.854-6.596a66.262 66.262 0 0 1 10.48-2.401l6.896-1a8.71 8.71 0 0 1 7.917 3.011l6.185 7.346a11.395 11.395 0 0 0 3.509 2.797l1.291.664a7.21 7.21 0 0 1 3.26 3.412 7.21 7.21 0 0 0 3.091 3.323l4.004 2.195a20.986 20.986 0 0 0 10.372 2.581l17.925-.245a5.49 5.49 0 0 0 5.057-3.535 5.494 5.494 0 0 1 4.938-3.533l1.497-.053a7.354 7.354 0 0 1 4.057 1.051l.697.421a4.43 4.43 0 0 0 5.331-.577l1.528-1.447a6.655 6.655 0 0 1 8.586-.477l1.331 1.005a4.128 4.128 0 0 0 2.49.835h.25c.986 0 1.927-.409 2.599-1.129a3.552 3.552 0 0 1 2.599-1.13h6.849c2.73 0 5.356-1.05 7.334-2.932a10.633 10.633 0 0 1 5.007-2.675l1.778-.399a17.219 17.219 0 0 0 8.907-5.146l1.529-1.663 10.503-9.407 5.445-5.98a20.694 20.694 0 0 0 4.365-7.494l1.425-4.354a7.552 7.552 0 0 0-.097-4.977 7.561 7.561 0 0 1 .058-5.405l1.118-2.827 2.772-5.553a16.516 16.516 0 0 0 1.74-7.378v-2.345a9.302 9.302 0 0 0-1.775-5.464 9.3 9.3 0 0 1-1.729-4.544l-.41-4.129a5.628 5.628 0 0 0-1.084-2.801l-.396-.534a4.076 4.076 0 0 1-.746-3.12l.02-.12a3.829 3.829 0 0 1 1.942-2.714 3.825 3.825 0 0 0 1.984-3.662l-.236-2.983a8.446 8.446 0 0 1 2.445-6.631c.309-.31.595-.644.852-.998l4.79-6.58a36.827 36.827 0 0 0 3.88-10.679l.152-.772c.491-2.505.689-5.06.591-7.611l-.139-3.608a8.11 8.11 0 0 1 .247-2.327l.95-3.718a3.495 3.495 0 0 1 3.605-2.622l1.468.091a1.802 1.802 0 0 0 1.877-1.434c.104-.509.424-.948.876-1.204l1.658-.939a5.386 5.386 0 0 0 2.734-4.688v-2.442c0-.888.574-1.675 1.42-1.945a2.043 2.043 0 0 0 1.404-1.693l.171-1.372v-13.742c0-1.542.71-2.998 1.925-3.948a5.01 5.01 0 0 0 1.872-4.669l-.949-6.53-.851-13.37-.81-5.853a15.156 15.156 0 0 0-.795-3.171l-.52-1.408a7.685 7.685 0 0 0-1.598-2.591l-.929-.995a5.062 5.062 0 0 0-4.37-1.562l-1.674.223a3.584 3.584 0 0 1-3.992-4.245c.767-3.912 2.106-11.151 1.819-11.324-.135-.081-1.001-.736-2.077-1.56a9.822 9.822 0 0 1-3.84-7.805c0-.693-.073-1.384-.217-2.062l-.841-3.942a5.53 5.53 0 0 0-3.797-4.136 5.533 5.533 0 0 1-3.083-2.369l-1.212-1.948a11.641 11.641 0 0 0-6.387-4.954L925.1 177l-5.769-1.074-3.101-.913a23.007 23.007 0 0 0-6.507-.939h-8.481a4.378 4.378 0 0 0-3.3 1.501 4.383 4.383 0 0 1-3.132 1.498l-5.659.217a6.097 6.097 0 0 1-6.32-5.714 6.058 6.058 0 0 0-.18-1.135l-1.612-6.287a16.172 16.172 0 0 0-2.217-4.967 16.179 16.179 0 0 1-2.656-7.491l-.664-7.146a5.426 5.426 0 0 0-4.637-4.869l-6.801-.97a21.87 21.87 0 0 1-3.661-.848l-2.104-.682a24.99 24.99 0 0 0-7.707-1.218h-3.579c-.719 0-1.675.227-2.345.487-3.584 1.387-7.261-1.113-7.649-4.936l-.089-.873a6.488 6.488 0 0 0-2.557-4.533l-7.631-5.738a6.345 6.345 0 0 0-6.673-.592 6.344 6.344 0 0 1-1.694.573l-3.941.737c-2.266.424-4.609.1-6.675-.923a10.64 10.64 0 0 0-6.663-.925l-1.764.328a16.022 16.022 0 0 0-9.649 5.822l-5.979 7.569a10.259 10.259 0 0 1-11.792 3.193 10.256 10.256 0 0 0-10.346 1.701l-3.311 2.785a4.826 4.826 0 0 1-4.859.803 4.823 4.823 0 0 0-1.753-.33h-1.994c-1.991 0-3.964.386-5.808 1.136l-8.213 3.338a60.773 60.773 0 0 1-21.25 4.453l-7.406.199a16.097 16.097 0 0 1-4.334-.475l-3.798-.951a7.016 7.016 0 0 0-5.495.903c-.9.578-1.92.943-2.982 1.066l-9.282 1.078a6.595 6.595 0 0 0-5.073 3.475l-.715 1.357a4.051 4.051 0 0 1-3.584 2.162 4.05 4.05 0 0 0-3.872 2.86l-.286.929a5.368 5.368 0 0 1-3.34 3.482l-.722.255a6.891 6.891 0 0 0-4.565 5.873l-.07.778a6.417 6.417 0 0 1-3.271 5.028 6.416 6.416 0 0 0-3.28 5.138l-.029.392a6.5 6.5 0 0 1-5.573 5.961 6.501 6.501 0 0 0-5.123 4.015l-7.121 17.741a27.434 27.434 0 0 0-1.943 8.905l-.209 4.374a14.54 14.54 0 0 0 2.585 8.993 14.534 14.534 0 0 1 2.316 11.169l-.173.857a16.582 16.582 0 0 1-5.649 9.472Z" />
    <path fill="url(#b)"
        d="m1000.57 297.731-18.14 15.106a1.762 1.762 0 0 0-.634 1.354 42.418 42.418 0 0 1-6.498 18.647l-1.345 2.098a50.283 50.283 0 0 0-5.549 11.779l-2.173 6.771a4.834 4.834 0 0 0 1.256 4.963l.79.759.74.584a5.205 5.205 0 0 1 1.894 3.139c.179.963.635 1.848 1.251 2.609.875 1.082 1.777 2.39 1.639 2.944-.155.62-.712 1.758-1.127 2.545a5.764 5.764 0 0 1-.65.965l-.417.506a4.612 4.612 0 0 0 .394 6.283l2.672 2.521a6.14 6.14 0 0 1 0 7.964l-3.473 4.11a3.557 3.557 0 0 0 .321 4.925l.648.59c.311.284.586.606.818.958l1.823 2.774c.36.547.784 1.06 1.253 1.517a9.02 9.02 0 0 1 2.729 6.433v.838c0 .956-.241 1.896-.701 2.733a5.68 5.68 0 0 0-.65 3.488l.161 1.206a9.384 9.384 0 0 0 3.065 5.764l1.408 1.253a14.464 14.464 0 0 1 4.096 6.192l.639 1.898c.5 1.484.84 3.017 1.014 4.573l.583 5.211a9.513 9.513 0 0 0 8.099 8.356l4.134.594c1.34.193 2.55.905 3.36 1.982a5.166 5.166 0 0 0 3.14 1.943l2.36.451c1.85.353 3.59 1.158 5.05 2.342l5.72 4.628a11.55 11.55 0 0 0 5.38 2.421c3.46.574 6.47 2.683 8.19 5.735l3.51 6.216a12.051 12.051 0 0 0 9.15 6.058c4.48.503 8.31 3.464 9.92 7.675l3.3 8.649c.39 1.003 0 2.137-.92 2.691a2.213 2.213 0 0 0-1.08 1.899v1.902c0 1.521.62 2.976 1.72 4.028l7.17 6.87a7.61 7.61 0 0 0 5.27 2.118 7.61 7.61 0 0 1 7.19 5.119l.14.398a8.203 8.203 0 0 0 6.3 5.386l4.4.792c.92.167 1.86.251 2.81.251h7.93l9.05-.684c2.07-.156 4.14.267 5.98 1.222.86.449 1.78.782 2.74.992l1.66.366c3.2.703 6.51.747 9.72.127l12.76-2.46 27.33-8.648a86.556 86.556 0 0 1 13.73-3.148l9.03-1.311c.91-.132 1.83-.154 2.75-.066 2.97.289 5.7 1.729 7.63 4.012l8.1 9.634a15.007 15.007 0 0 0 4.6 3.667l1.69.87a9.418 9.418 0 0 1 4.27 4.475 9.491 9.491 0 0 0 4.05 4.357l5.25 2.876a27.45 27.45 0 0 0 13.59 3.385l23.48-.32a7.2 7.2 0 0 0 6.63-4.636 7.197 7.197 0 0 1 6.47-4.632l1.96-.07a9.638 9.638 0 0 1 5.32 1.379l.91.551c.91.546 1.94.834 3 .834 1.48 0 2.91-.569 3.99-1.589l2-1.899a8.71 8.71 0 0 1 5.99-2.388c1.9 0 3.74.619 5.26 1.763l1.74 1.319c.94.71 2.09 1.094 3.26 1.094h.33c1.29 0 2.53-.536 3.41-1.481a4.647 4.647 0 0 1 3.4-1.481h8.97c3.58 0 7.02-1.377 9.62-3.845a13.913 13.913 0 0 1 6.56-3.507l2.33-.523a22.61 22.61 0 0 0 11.67-6.746l2-2.181 13.76-12.335 7.13-7.84a27.277 27.277 0 0 0 5.73-9.828l1.86-5.708c.7-2.127.65-4.427-.12-6.526a9.895 9.895 0 0 1 .07-7.087l1.47-3.706 3.63-7.281a21.654 21.654 0 0 0 2.28-9.674v-3.076c0-2.573-.82-5.08-2.33-7.163a12.152 12.152 0 0 1-2.26-5.957l-.54-5.415a7.334 7.334 0 0 0-1.42-3.672l-.52-.7a5.381 5.381 0 0 1-.98-4.091l.03-.158a5.034 5.034 0 0 1 2.54-3.558 5.005 5.005 0 0 0 2.6-4.8l-.31-3.913c-.25-3.225.92-6.405 3.21-8.695.4-.406.78-.844 1.11-1.309l6.28-8.626c2.41-4.377 4.12-9.1 5.08-14.002l.2-1.013c.65-3.285.91-6.634.78-9.979l-.19-4.732c-.04-1.027.07-2.054.33-3.049l1.24-4.878a4.589 4.589 0 0 1 4.73-3.437l1.92.121a2.367 2.367 0 0 0 2.46-1.881 2.38 2.38 0 0 1 1.15-1.579l2.17-1.229a7.073 7.073 0 0 0 3.58-6.149v-3.203c0-1.164.75-2.194 1.86-2.549a2.684 2.684 0 0 0 1.84-2.218l.23-1.8v-18.02c0-2.021.93-3.929 2.52-5.175a6.582 6.582 0 0 0 2.45-6.121l-1.24-8.563-1.12-17.53-1.06-7.676a19.257 19.257 0 0 0-1.04-4.156l-.68-1.848a10.282 10.282 0 0 0-2.09-3.396l-1.22-1.305a6.643 6.643 0 0 0-5.73-2.048l-2.19.292a4.696 4.696 0 0 1-5.23-5.565c1-5.13 2.76-14.622 2.38-14.848-.18-.107-1.31-.964-2.72-2.043a12.891 12.891 0 0 1-5.03-10.236c0-.909-.1-1.815-.29-2.703l-1.1-5.172a7.244 7.244 0 0 0-4.97-5.421 7.22 7.22 0 0 1-4.04-3.105l-1.59-2.555a15.262 15.262 0 0 0-8.37-6.496l-5.71-1.798-7.56-1.409-4.06-1.197a30.174 30.174 0 0 0-8.53-1.231h-11.11c-1.66 0-3.23.718-4.32 1.968a5.754 5.754 0 0 1-4.11 1.964l-7.4.284a7.997 7.997 0 0 1-8.29-7.492c-.03-.502-.11-1-.24-1.487l-2.11-8.244a21.118 21.118 0 0 0-2.91-6.513 21.227 21.227 0 0 1-3.47-9.82l-.87-9.372a7.18 7.18 0 0 0-1.38-3.582 7.093 7.093 0 0 0-4.7-2.802l-8.91-1.271a28.905 28.905 0 0 1-4.8-1.112l-2.76-.895a32.693 32.693 0 0 0-10.09-1.596h-4.69c-.94 0-2.2.298-3.08.638-4.69 1.818-9.51-1.456-10.02-6.466l-.11-1.153a8.534 8.534 0 0 0-3.35-5.941l-10-7.524a8.322 8.322 0 0 0-8.75-.776c-.7.354-1.44.607-2.22.752l-5.16.966a13.95 13.95 0 0 1-8.75-1.21 13.921 13.921 0 0 0-8.73-1.213l-2.31.43c-5 .928-9.49 3.64-12.64 7.631l-7.83 9.93a13.436 13.436 0 0 1-15.45 4.183 13.441 13.441 0 0 0-13.56 2.229l-4.34 3.654a6.308 6.308 0 0 1-6.36 1.052 6.382 6.382 0 0 0-2.3-.432h-2.61c-2.61 0-5.2.505-7.61 1.489l-10.76 4.377a79.596 79.596 0 0 1-27.85 5.838l-9.7.262c-1.91.051-3.82-.159-5.68-.624l-4.98-1.246a9.187 9.187 0 0 0-7.2 1.184 9.173 9.173 0 0 1-3.9 1.398l-12.16 1.413a8.634 8.634 0 0 0-6.65 4.556l-.94 1.781a5.313 5.313 0 0 1-4.69 2.833c-2.33 0-4.39 1.52-5.08 3.747l-.37 1.222a7.05 7.05 0 0 1-4.38 4.565l-.95.335a9.04 9.04 0 0 0-5.98 7.696l-.09 1.026a8.404 8.404 0 0 1-4.28 6.59 8.411 8.411 0 0 0-4.3 6.735l-.04.522a8.51 8.51 0 0 1-7.3 7.81 8.505 8.505 0 0 0-6.71 5.262l-9.33 23.263a35.776 35.776 0 0 0-2.55 11.677l-.27 5.736c-.2 4.196.99 8.341 3.38 11.79a19.063 19.063 0 0 1 3.04 14.644l-.23 1.123a21.768 21.768 0 0 1-7.4 12.424Z" />
    <path fill="url(#c)"
        d="m1000.57 297.731-18.14 15.106a1.762 1.762 0 0 0-.634 1.354 42.418 42.418 0 0 1-6.498 18.647l-1.345 2.098a50.283 50.283 0 0 0-5.549 11.779l-2.173 6.771a4.834 4.834 0 0 0 1.256 4.963l.79.759.74.584a5.205 5.205 0 0 1 1.894 3.139c.179.963.635 1.848 1.251 2.609.875 1.082 1.777 2.39 1.639 2.944-.155.62-.712 1.758-1.127 2.545a5.764 5.764 0 0 1-.65.965l-.417.506a4.612 4.612 0 0 0 .394 6.283l2.672 2.521a6.14 6.14 0 0 1 0 7.964l-3.473 4.11a3.557 3.557 0 0 0 .321 4.925l.648.59c.311.284.586.606.818.958l1.823 2.774c.36.547.784 1.06 1.253 1.517a9.02 9.02 0 0 1 2.729 6.433v.838c0 .956-.241 1.896-.701 2.733a5.68 5.68 0 0 0-.65 3.488l.161 1.206a9.384 9.384 0 0 0 3.065 5.764l1.408 1.253a14.464 14.464 0 0 1 4.096 6.192l.639 1.898c.5 1.484.84 3.017 1.014 4.573l.583 5.211a9.513 9.513 0 0 0 8.099 8.356l4.134.594c1.34.193 2.55.905 3.36 1.982a5.166 5.166 0 0 0 3.14 1.943l2.36.451c1.85.353 3.59 1.158 5.05 2.342l5.72 4.628a11.55 11.55 0 0 0 5.38 2.421c3.46.574 6.47 2.683 8.19 5.735l3.51 6.216a12.051 12.051 0 0 0 9.15 6.058c4.48.503 8.31 3.464 9.92 7.675l3.3 8.649c.39 1.003 0 2.137-.92 2.691a2.213 2.213 0 0 0-1.08 1.899v1.902c0 1.521.62 2.976 1.72 4.028l7.17 6.87a7.61 7.61 0 0 0 5.27 2.118 7.61 7.61 0 0 1 7.19 5.119l.14.398a8.203 8.203 0 0 0 6.3 5.386l4.4.792c.92.167 1.86.251 2.81.251h7.93l9.05-.684c2.07-.156 4.14.267 5.98 1.222.86.449 1.78.782 2.74.992l1.66.366c3.2.703 6.51.747 9.72.127l12.76-2.46 27.33-8.648a86.556 86.556 0 0 1 13.73-3.148l9.03-1.311c.91-.132 1.83-.154 2.75-.066 2.97.289 5.7 1.729 7.63 4.012l8.1 9.634a15.007 15.007 0 0 0 4.6 3.667l1.69.87a9.418 9.418 0 0 1 4.27 4.475 9.491 9.491 0 0 0 4.05 4.357l5.25 2.876a27.45 27.45 0 0 0 13.59 3.385l23.48-.32a7.2 7.2 0 0 0 6.63-4.636 7.197 7.197 0 0 1 6.47-4.632l1.96-.07a9.638 9.638 0 0 1 5.32 1.379l.91.551c.91.546 1.94.834 3 .834 1.48 0 2.91-.569 3.99-1.589l2-1.899a8.71 8.71 0 0 1 5.99-2.388c1.9 0 3.74.619 5.26 1.763l1.74 1.319c.94.71 2.09 1.094 3.26 1.094h.33c1.29 0 2.53-.536 3.41-1.481a4.647 4.647 0 0 1 3.4-1.481h8.97c3.58 0 7.02-1.377 9.62-3.845a13.913 13.913 0 0 1 6.56-3.507l2.33-.523a22.61 22.61 0 0 0 11.67-6.746l2-2.181 13.76-12.335 7.13-7.84a27.277 27.277 0 0 0 5.73-9.828l1.86-5.708c.7-2.127.65-4.427-.12-6.526a9.895 9.895 0 0 1 .07-7.087l1.47-3.706 3.63-7.281a21.654 21.654 0 0 0 2.28-9.674v-3.076c0-2.573-.82-5.08-2.33-7.163a12.152 12.152 0 0 1-2.26-5.957l-.54-5.415a7.334 7.334 0 0 0-1.42-3.672l-.52-.7a5.381 5.381 0 0 1-.98-4.091l.03-.158a5.034 5.034 0 0 1 2.54-3.558 5.005 5.005 0 0 0 2.6-4.8l-.31-3.913c-.25-3.225.92-6.405 3.21-8.695.4-.406.78-.844 1.11-1.309l6.28-8.626c2.41-4.377 4.12-9.1 5.08-14.002l.2-1.013c.65-3.285.91-6.634.78-9.979l-.19-4.732c-.04-1.027.07-2.054.33-3.049l1.24-4.878a4.589 4.589 0 0 1 4.73-3.437l1.92.121a2.367 2.367 0 0 0 2.46-1.881 2.38 2.38 0 0 1 1.15-1.579l2.17-1.229a7.073 7.073 0 0 0 3.58-6.149v-3.203c0-1.164.75-2.194 1.86-2.549a2.684 2.684 0 0 0 1.84-2.218l.23-1.8v-18.02c0-2.021.93-3.929 2.52-5.175a6.582 6.582 0 0 0 2.45-6.121l-1.24-8.563-1.12-17.53-1.06-7.676a19.257 19.257 0 0 0-1.04-4.156l-.68-1.848a10.282 10.282 0 0 0-2.09-3.396l-1.22-1.305a6.643 6.643 0 0 0-5.73-2.048l-2.19.292a4.696 4.696 0 0 1-5.23-5.565c1-5.13 2.76-14.622 2.38-14.848-.18-.107-1.31-.964-2.72-2.043a12.891 12.891 0 0 1-5.03-10.236c0-.909-.1-1.815-.29-2.703l-1.1-5.172a7.244 7.244 0 0 0-4.97-5.421 7.22 7.22 0 0 1-4.04-3.105l-1.59-2.555a15.262 15.262 0 0 0-8.37-6.496l-5.71-1.798-7.56-1.409-4.06-1.197a30.174 30.174 0 0 0-8.53-1.231h-11.11c-1.66 0-3.23.718-4.32 1.968a5.754 5.754 0 0 1-4.11 1.964l-7.4.284a7.997 7.997 0 0 1-8.29-7.492c-.03-.502-.11-1-.24-1.487l-2.11-8.244a21.118 21.118 0 0 0-2.91-6.513 21.227 21.227 0 0 1-3.47-9.82l-.87-9.372a7.18 7.18 0 0 0-1.38-3.582 7.093 7.093 0 0 0-4.7-2.802l-8.91-1.271a28.905 28.905 0 0 1-4.8-1.112l-2.76-.895a32.693 32.693 0 0 0-10.09-1.596h-4.69c-.94 0-2.2.298-3.08.638-4.69 1.818-9.51-1.456-10.02-6.466l-.11-1.153a8.534 8.534 0 0 0-3.35-5.941l-10-7.524a8.322 8.322 0 0 0-8.75-.776c-.7.354-1.44.607-2.22.752l-5.16.966a13.95 13.95 0 0 1-8.75-1.21 13.921 13.921 0 0 0-8.73-1.213l-2.31.43c-5 .928-9.49 3.64-12.64 7.631l-7.83 9.93a13.436 13.436 0 0 1-15.45 4.183 13.441 13.441 0 0 0-13.56 2.229l-4.34 3.654a6.308 6.308 0 0 1-6.36 1.052 6.382 6.382 0 0 0-2.3-.432h-2.61c-2.61 0-5.2.505-7.61 1.489l-10.76 4.377a79.596 79.596 0 0 1-27.85 5.838l-9.7.262c-1.91.051-3.82-.159-5.68-.624l-4.98-1.246a9.187 9.187 0 0 0-7.2 1.184 9.173 9.173 0 0 1-3.9 1.398l-12.16 1.413a8.634 8.634 0 0 0-6.65 4.556l-.94 1.781a5.313 5.313 0 0 1-4.69 2.833c-2.33 0-4.39 1.52-5.08 3.747l-.37 1.222a7.05 7.05 0 0 1-4.38 4.565l-.95.335a9.04 9.04 0 0 0-5.98 7.696l-.09 1.026a8.404 8.404 0 0 1-4.28 6.59 8.411 8.411 0 0 0-4.3 6.735l-.04.522a8.51 8.51 0 0 1-7.3 7.81 8.505 8.505 0 0 0-6.71 5.262l-9.33 23.263a35.776 35.776 0 0 0-2.55 11.677l-.27 5.736c-.2 4.196.99 8.341 3.38 11.79a19.063 19.063 0 0 1 3.04 14.644l-.23 1.123a21.768 21.768 0 0 1-7.4 12.424Z" />
    <path fill="url(#d)"
        d="m1510.38 234.074-13.84 11.523a1.33 1.33 0 0 0-.48 1.033 32.32 32.32 0 0 1-4.96 14.22l-1.03 1.603a38.284 38.284 0 0 0-4.24 8.981l-1.65 5.165c-.12.364-.18.744-.18 1.126 0 1.004.41 1.964 1.13 2.659l.61.579.56.445a3.982 3.982 0 0 1 1.45 2.394c.13.734.48 1.409.95 1.99.67.825 1.36 1.823 1.25 2.245-.11.474-.54 1.341-.86 1.941-.14.263-.3.508-.49.736l-.32.387c-.52.629-.8 1.419-.8 2.235 0 .967.4 1.892 1.1 2.556l2.04 1.923a4.686 4.686 0 0 1 0 6.074l-2.65 3.135c-.28.325-.47.711-.57 1.125a2.7 2.7 0 0 0 .81 2.63l.5.451c.24.216.45.461.62.73l1.39 2.116c.28.417.6.808.96 1.157a6.875 6.875 0 0 1 2.08 4.906v.639c0 .729-.18 1.446-.53 2.085a4.32 4.32 0 0 0-.5 2.66l.13.92a7.108 7.108 0 0 0 2.33 4.395l1.08.956a11.044 11.044 0 0 1 3.12 4.723l.49 1.447c.38 1.132.64 2.301.78 3.489l.44 3.972a7.25 7.25 0 0 0 6.18 6.374l3.16.453c1.02.147 1.94.69 2.57 1.512.58.772 1.43 1.3 2.39 1.481l1.8.345c1.41.269 2.74.883 3.85 1.786l4.37 3.529c1.19.96 2.6 1.597 4.11 1.847a8.827 8.827 0 0 1 6.25 4.376l2.67 4.737a9.195 9.195 0 0 0 6.99 4.622 9.203 9.203 0 0 1 7.57 5.857l2.52 6.592c.29.766 0 1.631-.71 2.053-.51.306-.82.855-.82 1.449v1.45c0 1.16.48 2.269 1.31 3.072l5.48 5.239a5.803 5.803 0 0 0 4.02 1.616c2.47 0 4.68 1.568 5.49 3.907l.1.3a6.274 6.274 0 0 0 4.81 4.108l3.36.605c.7.127 1.42.191 2.14.191h6.06l6.9-.522a8.501 8.501 0 0 1 4.56.932c.67.342 1.37.597 2.1.757l1.26.279c2.45.536 4.97.569 7.43.097l9.74-1.876 20.85-6.596a66.237 66.237 0 0 1 10.48-2.401l6.9-1a8.693 8.693 0 0 1 7.91 3.011l6.19 7.346a11.294 11.294 0 0 0 3.51 2.797l1.29.664a7.233 7.233 0 0 1 3.26 3.412 7.182 7.182 0 0 0 3.09 3.323l4 2.195a20.997 20.997 0 0 0 10.37 2.581l17.93-.245a5.494 5.494 0 0 0 5.06-3.535 5.484 5.484 0 0 1 4.94-3.533l1.49-.053a7.35 7.35 0 0 1 4.06 1.051l.7.421a4.421 4.421 0 0 0 5.33-.577l1.53-1.447a6.635 6.635 0 0 1 4.57-1.822c1.45 0 2.86.472 4.01 1.345l1.33 1.005c.72.542 1.59.835 2.49.835h.25c.99 0 1.93-.409 2.6-1.129a3.544 3.544 0 0 1 2.6-1.13h6.85c2.73 0 5.36-1.05 7.33-2.932a10.661 10.661 0 0 1 5.01-2.675l1.78-.399a17.262 17.262 0 0 0 8.91-5.146l1.52-1.663 10.51-9.407 5.44-5.98a20.691 20.691 0 0 0 4.37-7.494l1.42-4.354c.53-1.622.5-3.377-.09-4.977a7.571 7.571 0 0 1 .05-5.405l1.12-2.827 2.77-5.553a16.436 16.436 0 0 0 1.74-7.378v-2.345c0-1.963-.62-3.876-1.77-5.464a9.263 9.263 0 0 1-1.73-4.544l-.41-4.129a5.698 5.698 0 0 0-1.08-2.801l-.4-.534a4.049 4.049 0 0 1-.75-3.12l.02-.12c.2-1.154.92-2.154 1.94-2.714a3.823 3.823 0 0 0 1.99-3.662l-.24-2.983a8.447 8.447 0 0 1 2.45-6.631c.31-.31.59-.644.85-.998l4.79-6.58a36.682 36.682 0 0 0 3.88-10.679l.15-.772c.49-2.505.69-5.06.59-7.611l-.14-3.608c-.03-.784.06-1.567.25-2.327l.95-3.718a3.5 3.5 0 0 1 3.61-2.622l1.46.091a1.8 1.8 0 0 0 1.88-1.434c.11-.509.43-.948.88-1.204l1.66-.939a5.403 5.403 0 0 0 2.73-4.688v-2.442c0-.888.57-1.675 1.42-1.945.76-.243 1.3-.903 1.4-1.693l.17-1.372v-13.742c0-1.542.71-2.998 1.93-3.948a5 5 0 0 0 1.87-4.669l-.95-6.53-.85-13.37-.81-5.853a15.724 15.724 0 0 0-.79-3.171l-.52-1.408a7.77 7.77 0 0 0-1.6-2.591l-.93-.995a5.068 5.068 0 0 0-4.37-1.562l-1.68.223a3.58 3.58 0 0 1-4.05-3.552c0-.233.02-.464.06-.693.77-3.912 2.11-11.151 1.82-11.324-.13-.081-1-.736-2.08-1.56a9.836 9.836 0 0 1-3.83-7.805c0-.693-.08-1.384-.22-2.062l-.84-3.942a5.541 5.541 0 0 0-3.8-4.136 5.503 5.503 0 0 1-3.08-2.369l-1.21-1.948a11.658 11.658 0 0 0-6.39-4.954L1804.1 156l-5.77-1.074-3.1-.913c-2.11-.623-4.3-.939-6.51-.939h-8.48c-1.26 0-2.47.547-3.3 1.501a4.366 4.366 0 0 1-3.13 1.498l-5.66.217a6.1 6.1 0 0 1-6.32-5.714 5.468 5.468 0 0 0-.18-1.135l-1.61-6.287a15.969 15.969 0 0 0-2.22-4.967 16.126 16.126 0 0 1-2.65-7.491l-.67-7.146a5.426 5.426 0 0 0-1.04-2.733 5.446 5.446 0 0 0-3.59-2.136l-6.81-.97a22.066 22.066 0 0 1-3.66-.848l-2.1-.682a25 25 0 0 0-7.71-1.218h-3.58c-.72 0-1.67.227-2.34.487-3.59 1.387-7.26-1.113-7.65-4.936l-.09-.873a6.474 6.474 0 0 0-2.56-4.533l-7.63-5.738a6.34 6.34 0 0 0-6.67-.592c-.54.27-1.11.463-1.7.573l-3.94.737c-2.26.424-4.6.1-6.67-.923a10.632 10.632 0 0 0-6.66-.925l-1.77.328a16.056 16.056 0 0 0-9.65 5.822l-5.98 7.569a10.25 10.25 0 0 1-11.79 3.193 10.243 10.243 0 0 0-10.34 1.701l-3.32 2.785a4.812 4.812 0 0 1-4.85.803 4.864 4.864 0 0 0-1.76-.33h-1.99c-1.99 0-3.96.386-5.81 1.136l-8.21 3.338a60.796 60.796 0 0 1-21.25 4.453l-7.41.199c-1.46.039-2.92-.121-4.33-.475l-3.8-.951a7.028 7.028 0 0 0-5.5.903c-.89.578-1.92.943-2.98 1.066l-9.28 1.078a6.584 6.584 0 0 0-5.07 3.475l-.72 1.357a4.047 4.047 0 0 1-3.58 2.162c-1.78 0-3.35 1.16-3.87 2.86l-.29.929a5.373 5.373 0 0 1-3.34 3.482l-.72.255a6.904 6.904 0 0 0-4.57 5.873l-.07.778a6.4 6.4 0 0 1-3.27 5.028 6.419 6.419 0 0 0-3.28 5.138l-.03.392a6.492 6.492 0 0 1-5.57 5.961 6.491 6.491 0 0 0-5.12 4.015l-7.12 17.741a27.521 27.521 0 0 0-1.95 8.905l-.2 4.374c-.16 3.2.75 6.362 2.58 8.993a14.553 14.553 0 0 1 2.32 11.169l-.18.857a16.541 16.541 0 0 1-5.65 9.472Z" />
    <path fill="url(#e)"
        d="m41.966 217.401-22.029 18.29a2.129 2.129 0 0 0-.768 1.637 51.197 51.197 0 0 1-7.88 22.548l-1.643 2.555a60.687 60.687 0 0 0-6.728 14.236L.28 284.862a5.83 5.83 0 0 0 1.52 6.001l.964.921.9.709a6.29 6.29 0 0 1 2.296 3.794c.217 1.165.77 2.235 1.516 3.155 1.062 1.309 2.158 2.893 1.99 3.562-.187.751-.863 2.128-1.367 3.08-.22.416-.488.804-.788 1.167l-.508.614a5.561 5.561 0 0 0 .476 7.595l3.246 3.053a7.415 7.415 0 0 1 0 9.634L6.31 333.12a4.293 4.293 0 0 0 .389 5.954l.79.717c.377.343.71.731.99 1.157l2.214 3.357c.436.662.943 1.274 1.512 1.826l.042.042a10.797 10.797 0 0 1 3.277 7.748v1.013a6.858 6.858 0 0 1-.85 3.307 6.858 6.858 0 0 0-.79 4.221l.197 1.459a11.325 11.325 0 0 0 3.711 6.965l1.718 1.523a17.498 17.498 0 0 1 4.97 7.494l.773 2.288a26.572 26.572 0 0 1 1.232 5.539l.707 6.291a11.515 11.515 0 0 0 9.81 10.114l5.038.722a6.245 6.245 0 0 1 4.08 2.396 6.244 6.244 0 0 0 3.8 2.35l2.876.547a13.89 13.89 0 0 1 6.124 2.835l6.935 5.594a14.068 14.068 0 0 0 6.536 2.931 14.068 14.068 0 0 1 9.948 6.953l4.237 7.49a14.64 14.64 0 0 0 11.116 7.342 14.64 14.64 0 0 1 12.043 9.308l4.001 10.434a2.681 2.681 0 0 1-1.125 3.26 2.682 2.682 0 0 0-1.303 2.3v2.297c0 1.84.753 3.6 2.083 4.871l8.699 8.311a9.255 9.255 0 0 0 6.395 2.564 9.255 9.255 0 0 1 8.741 6.213l.16.459a9.939 9.939 0 0 0 7.631 6.515l5.352.961a19.21 19.21 0 0 0 3.401.303h9.635l10.984-.827a13.556 13.556 0 0 1 7.248 1.477c1.051.543 2.168.947 3.324 1.2l2.019.443c3.881.851 7.896.904 11.798.154l15.488-2.976 33.677-10.625a98.96 98.96 0 0 1 15.608-3.566l11.503-1.665a13.878 13.878 0 0 1 12.593 4.784l9.828 11.643a18.127 18.127 0 0 0 5.579 4.437l2.059 1.056a11.439 11.439 0 0 1 5.178 5.41 11.436 11.436 0 0 0 4.911 5.267l6.38 3.489a33.373 33.373 0 0 0 16.466 4.089l28.531-.388a8.722 8.722 0 0 0 8.028-5.608 8.722 8.722 0 0 1 7.839-5.603l2.395-.084a11.702 11.702 0 0 1 6.448 1.667l1.108.667a7.058 7.058 0 0 0 8.48-.917l2.423-2.289a10.602 10.602 0 0 1 13.658-.758l2.112 1.592a6.579 6.579 0 0 0 3.96 1.325h.402c1.565 0 3.06-.649 4.129-1.792a5.654 5.654 0 0 1 4.129-1.792h10.902c4.337 0 8.508-1.664 11.652-4.65a16.932 16.932 0 0 1 7.958-4.243l2.831-.633a27.41 27.41 0 0 0 14.171-8.171l2.423-2.628 16.699-14.921 8.667-9.495a32.755 32.755 0 0 0 6.931-11.871l2.267-6.911c.844-2.573.79-5.356-.154-7.894a11.96 11.96 0 0 1 .092-8.573l1.777-4.484 4.409-8.81a26.147 26.147 0 0 0 2.765-11.701v-3.715a14.73 14.73 0 0 0-2.822-8.67 14.745 14.745 0 0 1-2.749-7.21l-.652-6.544a8.922 8.922 0 0 0-1.722-4.444l-.632-.847a6.46 6.46 0 0 1-1.185-4.952l.031-.183a6.075 6.075 0 0 1 3.087-4.308 6.074 6.074 0 0 0 3.156-5.819l-.375-4.719a13.393 13.393 0 0 1 3.887-10.521 13.34 13.34 0 0 0 1.355-1.582l7.617-10.437a58.348 58.348 0 0 0 6.17-16.943l.24-1.22a52.168 52.168 0 0 0 .94-12.071l-.221-5.718a12.894 12.894 0 0 1 .394-3.701l1.507-5.882a5.56 5.56 0 0 1 5.734-4.169l2.341.146a2.859 2.859 0 0 0 2.977-2.275 2.857 2.857 0 0 1 1.394-1.91l2.644-1.493a8.538 8.538 0 0 0 4.339-7.434v-3.867c0-1.412.913-2.661 2.258-3.091a3.243 3.243 0 0 0 2.233-2.688l.272-2.172v-21.791a7.949 7.949 0 0 1 3.06-6.267 7.947 7.947 0 0 0 2.976-7.413l-1.509-10.349-1.352-21.207-1.288-9.281a23.979 23.979 0 0 0-1.264-5.033l-.824-2.226a12.256 12.256 0 0 0-2.547-4.121l-1.474-1.573a8.058 8.058 0 0 0-6.944-2.479l-2.684.358a5.686 5.686 0 0 1-6.329-6.737c1.219-6.206 3.348-17.686 2.892-17.96-.216-.129-1.598-1.172-3.313-2.482a15.554 15.554 0 0 1-6.095-12.37c0-1.1-.116-2.197-.346-3.273l-1.334-6.239a8.793 8.793 0 0 0-6.041-6.574 8.796 8.796 0 0 1-4.903-3.76l-1.925-3.086a18.487 18.487 0 0 0-10.146-7.854l-6.939-2.18-9.173-1.704-4.932-1.449a36.683 36.683 0 0 0-10.341-1.488h-13.493a6.964 6.964 0 0 0-5.243 2.38 6.963 6.963 0 0 1-4.976 2.376l-9.027.346a9.672 9.672 0 0 1-10.024-9.062 9.741 9.741 0 0 0-.286-1.804l-2.562-9.967a25.637 25.637 0 0 0-3.527-7.881 25.65 25.65 0 0 1-4.223-11.887l-1.054-11.322a8.62 8.62 0 0 0-7.364-7.73l-10.827-1.54c-1.974-.28-3.92-.73-5.817-1.343l-3.345-1.082a39.83 39.83 0 0 0-12.255-1.932h-5.695c-1.141 0-2.659.36-3.723.771-5.702 2.201-11.549-1.774-12.167-7.855l-.138-1.35a10.301 10.301 0 0 0-4.067-7.198L352.577 3.76a10.106 10.106 0 0 0-10.611-.94c-.85.428-1.757.735-2.694.91l-6.269 1.168a16.95 16.95 0 0 1-10.611-1.464 16.949 16.949 0 0 0-10.591-1.468l-2.802.52a25.524 25.524 0 0 0-15.361 9.251l-9.483 11.978a16.342 16.342 0 0 1-18.761 5.075 16.34 16.34 0 0 0-16.454 2.702l-5.258 4.412a7.686 7.686 0 0 1-7.728 1.276 7.682 7.682 0 0 0-2.787-.523h-3.171c-3.166 0-6.303.611-9.237 1.801l-13.056 5.295a96.808 96.808 0 0 1-33.783 7.062l-11.782.316a25.596 25.596 0 0 1-6.891-.754l-6.042-1.509a11.17 11.17 0 0 0-8.734 1.433 11.166 11.166 0 0 1-4.741 1.692l-14.769 1.71a10.474 10.474 0 0 0-8.056 5.512l-1.135 2.146a6.446 6.446 0 0 1-5.7 3.434 6.448 6.448 0 0 0-6.161 4.548l-.45 1.46a8.519 8.519 0 0 1-5.306 5.523L93 76.733a10.949 10.949 0 0 0-7.26 9.332l-.11 1.207a10.188 10.188 0 0 1-5.201 7.984 10.187 10.187 0 0 0-5.217 8.16l-.043.59a10.336 10.336 0 0 1-8.866 9.477 10.336 10.336 0 0 0-8.146 6.377l-11.32 28.131a43.395 43.395 0 0 0-3.088 14.124l-.332 6.931a23.025 23.025 0 0 0 4.109 14.268 23.027 23.027 0 0 1 3.68 17.725l-.274 1.356a26.26 26.26 0 0 1-8.966 15.006Z" />
    <defs>
        <radialGradient id="a" cx="0" cy="0" r="1" gradientTransform="matrix(0 165.5 -180.5 0 785.5 283.5)"
            gradientUnits="userSpaceOnUse">
            <stop stop-color="#910000" />
            <stop offset=".719" stop-color="#DD1D1D" />
        </radialGradient>
        <radialGradient id="b" cx="0" cy="0" r="1" gradientTransform="matrix(0 217 -236.5 0 1202.5 335)"
            gradientUnits="userSpaceOnUse">
            <stop stop-color="#910068" />
            <stop offset=".569" stop-color="#DD1DA7" />
        </radialGradient>
        <radialGradient id="c" cx="0" cy="0" r="1" gradientTransform="matrix(0 217 -236.5 0 1202.5 335)"
            gradientUnits="userSpaceOnUse">
            <stop stop-color="#910068" />
            <stop offset=".569" stop-color="#DD1DA7" />
        </radialGradient>
        <radialGradient id="d" cx="0" cy="0" r="1" gradientTransform="matrix(0 165.5 -180.5 0 1664.5 262.5)"
            gradientUnits="userSpaceOnUse">
            <stop stop-color="#910034" />
            <stop offset=".569" stop-color="#DD1D79" />
        </radialGradient>
        <radialGradient id="e" cx="0" cy="0" r="1" gradientTransform="matrix(0 262.5 -287 0 287 262.5)"
            gradientUnits="userSpaceOnUse">
            <stop stop-color="#916800" />
            <stop offset=".719" stop-color="#DDA71D" />
        </radialGradient>
    </defs>
</svg>