<svg xmlns="http://www.w3.org/2000/svg" aria-hidden="true" style="position:absolute;width:0;height:0;overflow:hidden">
    <defs>
        <symbol id="facebook" viewBox="0 0 32 32">
            <path
                d="M21.33 5.313h2.921V.225C23.747.156 22.014 0 19.995 0c-4.212 0-7.097 2.649-7.097 7.519V12H8.25v5.688h4.648V32h5.699V17.689h4.46l.708-5.688h-5.169V8.082c.001-1.644.444-2.769 2.735-2.769z" />
        </symbol>
        <symbol id="categories-3" viewBox="0 0 32 32">
            <path fill="#dd1da7"
                d="M8.785 3.767c.197-.702.653-1.561.653-1.561h13.123s.483.788.71 1.662c.415 1.594.384 2.779.384 2.779v23.148h-5.468L16 10.013l-2.187 19.782H8.345V6.275s.063-1.162.44-2.507z"
                style="fill:var(--color1, #dd1da7)" />
            <path fill="#a40377"
                d="M13.273 11.76s.128.373.511.373c.426 0 .54-.373.54-.373s-.001-1.862 1.704-1.862c1.619 0 1.619 1.862 1.619 1.862s.17.373.54.373c.369 0 .511-.373.511-.373s0-2.922-2.67-2.922c-2.798 0-2.755 2.922-2.755 2.922z"
                style="fill:var(--color2, #a40377)" />
            <path fill="#ba138b"
                d="M22.561 2.206H9.438V0h13.123v2.206zM13.259 29.794H8.885V32h4.374v-2.206zM23.115 29.794H18.74V32h4.375v-2.206z"
                style="fill:var(--color3, #ba138b)" />
        </symbol>
        <symbol id="categories-4" viewBox="0 0 32 32">
            <path fill="#dd1d79"
                d="M6.313 14.349 6.042 3.284s1.323-.44 2.195-.623c.799-.168 2.068-.298 2.068-.298s.45-.009.668.145c.271.19.343.488.343.488s.894 3.11 4.724 3.071c3.893-.039 4.652-3.143 4.652-3.143s.145-.381.524-.551c.379-.17.822 0 .822 0s1.381.211 2.249.425c.663.163 1.68.488 1.68.488l-.298 11.128s-.301 1.801-.262 2.963c.136 4.019.741 9.628.741 9.628s.081.75-.352 1.328c-.331.442-.813.551-.813.551s-3.739.768-8.87.768c-4.742 0-8.481-.641-8.481-.641s-.823 0-1.355-.632c-.464-.551-.388-1.463-.388-1.463s.759-6.079.759-9.936c0-1.035-.334-2.628-.334-2.628z"
                style="fill:var(--color4, #dd1d79)" />
            <path fill="#be065e"
                d="M30.086 5.172c-.045-1.843-4.119-1.888-4.119-1.888s-.994 3.767-.994 6.268c0 2.999.687 4.85.687 4.85s1.824-.235 2.023-.939c.176-.623-.108-1.129-.108-1.707 0-.804 1.671-1.174 1.689-2.267.014-.822-.244-1.409-.244-2.114 0-.226 1.091-1.174 1.066-2.204zM1.914 5.163c.045-1.843 4.127-1.879 4.127-1.879s.984 3.757.985 6.259c0 2.999-.705 4.85-.705 4.85s-1.806-.235-2.005-.939c-.176-.623.108-1.129.108-1.707 0-.804-1.671-1.174-1.689-2.267-.014-.822.244-1.409.244-2.114 0-.226-1.091-1.174-1.066-2.204z"
                style="fill:var(--color5, #be065e)" />
        </symbol>
        <symbol id="categories-5" viewBox="0 0 32 32">
            <path fill="#bc8800"
                d="m19.008 12.634 3.986-9.31s1.175 1.867 1.887 6.79c.248 1.713.449 4.245.571 6.483.14 2.573.15 5.837.15 5.837h-2.891l-3.702-9.799zM13.1 12.619l-3.986-9.31s-1.175 1.867-1.887 6.79c-.248 1.713-.449 4.245-.571 6.483-.14 2.573-.15 5.837-.15 5.837h2.891l3.702-9.799z"
                style="fill:var(--color6, #bc8800)" />
            <path fill="#dda71d"
                d="M21.174 12.877c-.082-4.371 1.82-9.553 1.82-9.553s-.717-.467-1.229-.646c-.811-.284-1.938-.504-1.938-.504l-6.301 5.868L18.37 31.35s.732.622 4.238-.339c.63-.173.67-.425.67-.425s-.646-9.565-.89-12.085c-.081-.835-1.142-1.859-1.213-5.623z"
                style="fill:var(--color7, #dda71d)" />
            <path fill="#d0990a"
                d="M10.91 12.894c.082-4.372-1.82-9.555-1.82-9.555s.717-.467 1.229-.646c.811-.284 1.938-.504 1.938-.504l7.113 7.806v21.984s-6.38.213-9.886-.748c-.63-.173-.638-.354-.638-.354s.607-9.838.851-12.359c.081-.835 1.142-1.859 1.213-5.624z"
                style="fill:var(--color8, #d0990a)" />
            <path fill="#bc8800"
                d="M12.32 2.001C12.915.772 14.006 0 14.006 0h4.127s1.542 1.197 1.922 2.655-.15 2.741-.15 2.741l-2.032-.985 1.26 2.308-1.237.638 1.473 2.662-6.38-3.371 1.245-2.261-2.009 1.016S11.526 3.639 12.32 2z"
                style="fill:var(--color6, #bc8800)" />
            <path fill="#dda71d"
                d="M14.321 1.961C13.9.705 13.998 0 13.998 0h4.135s-.068 1.142-.347 1.961c-.498 1.465-1.764 2.71-1.764 2.71s-1.284-1.465-1.701-2.71z"
                style="fill:var(--color7, #dda71d)" />
            <path fill="#a97a02"
                d="M14.274 1.906c-.018-.055-.016-.102-.016-.102h3.576s-.029.102-.047.157c-.498 1.465-1.764 2.71-1.764 2.71s-1.333-1.52-1.749-2.765zM14.51 11.083c0 .283-.233.512-.52.512s-.52-.229-.52-.512c0-.283.233-.512.52-.512s.52.229.52.512zM18.401 11.083c0 .283-.233.512-.52.512s-.52-.229-.52-.512c0-.283.233-.512.52-.512s.52.229.52.512zM18.401 17.258c0 .283-.233.512-.52.512s-.52-.229-.52-.512c0-.283.233-.512.52-.512s.52.229.52.512zM18.401 23.182c0 .283-.233.512-.52.512s-.52-.229-.52-.512c0-.283.233-.512.52-.512s.52.229.52.512zM14.51 23.182c0 .283-.233.512-.52.512s-.52-.229-.52-.512c0-.283.233-.512.52-.512s.52.229.52.512zM14.51 17.258c0 .283-.233.512-.52.512s-.52-.229-.52-.512c0-.283.233-.512.52-.512s.52.229.52.512z"
                style="fill:var(--color9, #a97a02)" />
        </symbol>
        <symbol id="categories-6" viewBox="0 0 32 32">
            <path fill="#bd0303"
                d="M10.081.139c-.103.104-.103.276-.103.276v2.069l12.138-.119V.346s.021-.048-.138-.207c-.138-.138-.276-.138-.276-.138H10.323s-.085-.019-.241.138z"
                style="fill:var(--color10, #bd0303)" />
            <path fill="#dd1d1d"
                d="M7.426 11.483c-.003-2.965 2.588-9.276 2.588-9.276h12.138s2.552 6.103 2.552 9.276c0 2.345-1.449 19.414-1.449 19.414S20.394 32 16.152 32c-4.585 0-7.242-1.103-7.242-1.103S7.428 13.518 7.426 11.483z"
                style="fill:var(--color11, #dd1d1d)" />
            <path fill="#980000"
                d="m11.908 6.104.586-3.897h.517l-.586 3.965s-.034.207-.276.172-.241-.241-.241-.241zM20.184 6.1l-.586-3.893h-.517l.586 3.962s.034.207.276.172.241-.241.241-.241z"
                style="fill:var(--color12, #980000)" />
        </symbol>
        <symbol id="categories-2" viewBox="0 0 32 32">
            <path fill="#a90000"
                d="m10.898 4.184.08.24 1.069-.09-.14-.609s.106-.756.35-1.348c.121-.293.42-.968.42-.968s.227.606.34 1.008c.141.5.27 1.308.27 1.308v.609h1.139s-.178-1.803-.48-2.475c-.51-1.138-.63-1.896-1.169-1.856-.548.041-1.411 1.727-1.469 1.856-.378.842-.41 2.326-.41 2.326zM21.062 4.193l-.08.24-1.069-.09.14-.61s-.106-.757-.35-1.35c-.121-.294-.42-.97-.42-.97s-.227.607-.34 1.01c-.141.501-.27 1.31-.27 1.31v.61h-1.139s.178-1.806.48-2.48c.51-1.14.63-1.9 1.169-1.86.548.041 1.411 1.73 1.469 1.86.378.843.41 2.33.41 2.33z"
                style="fill:var(--color13, #a90000)" />
            <path fill="#dd1d1d"
                d="M15.955 4.702s-1.639-1.048-3.458-1.078a3.012 3.012 0 0 0-.499.032c-1.501.227-1.5 2.156-1.158 3.635.11.474.211.934.278 1.274.231 1.184.3 2.306.3 2.306v2.226s-3.744 5.783-5.467 8.184a39.505 39.505 0 0 1-4.037 4.751s7.205 5.969 14.211 5.969 13.961-5.939 13.961-5.939-2.217-2.191-4.017-4.611c-1.966-2.644-5.536-8.384-5.536-8.384v-2.226l.32-2.365.339-1.487c.297-1.301.298-2.943-1-3.252a3.247 3.247 0 0 0-.748-.082c-1.619 0-3.488 1.048-3.488 1.048z"
                style="fill:var(--color11, #dd1d1d)" />
            <path fill="#a90000" d="M20.512 10.821h-9.094v2.246h9.094v-2.246z" style="fill:var(--color13, #a90000)" />
        </symbol>
        <symbol id="categories-1" viewBox="0 0 32 32">
            <path fill="#dda71d"
                d="M12.458 1.109s-.933-.084-1.723.196c-.511.182-1.073.926-1.073.926l-7.209 9.586s-.559.547-.538 1.039c.035.814.819 1.053.819 1.053l3.02 1.558s.587.19.932.07c.408-.142.563-.477.563-.477l1.865-4.575v6.091l-.989 13.993s-.125.646.282 1.123c.203.238.677.309.677.309h13.352s.381.028.749-.323c.295-.281.295-.66.295-.66l-.986-14.428v-6.049l1.607 4.028s.296.93.861 1.039.776 0 .776 0l3.839-1.417s.494-.281.51-.926c.011-.421-.298-.8-.298-.8l-7.015-9.179s-.988-1.291-1.299-1.544c-.711-.578-1.607-.631-1.607-.631l-4.404 3.958-3.006-3.958z"
                style="fill:var(--color7, #dda71d)" />
            <path fill="#b58405"
                d="m15.462 5.067-3.006-3.958S12.541 0 15.702 0c2.597 0 3.147.674 3.147.674l-3.387 4.393z"
                style="fill:var(--color14, #b58405)" />
            <path fill="#d0990a"
                d="M18.986.842c-.05-.075-.137-.168-.137-.168l-3.387 4.393s-1.411 1.389-2.512 4.014c-1.125 2.68-1.059 5.263-1.059 5.263V32h1.115l.042-17.656s.098-2.667.875-4.66c.536-1.375 1.553-2.891 1.553-2.891l4.389-5.684-.776-.056s-.05-.131-.103-.211z"
                style="fill:var(--color8, #d0990a)" />
        </symbol>
        <symbol id="categories-7" viewBox="0 0 32 32">
            <path fill="#dd1da7"
                d="m20.579 1.239-9.027.081-.148.745s-1.228 3.292-1.228 6.906c0 4.489 1.267 13.258 1.641 19.363.038.614-1.613 1.782-1.613 1.782s-.328.184-.328.9c0 .985.858.985.858.985h2.996s.388-.004.84-.462.434-.776.434-.776V8.415h2.075v22.348s0 .325.455.776c.466.462.833.462.833.462h3.077s.801-.261.801-.981-.526-1.002-.526-1.002-1.336-.879-1.323-1.281c.162-5.325 1.574-17.923 1.574-18.883 0-4.877-1.291-7.764-1.291-7.764l-.099-.85z"
                style="fill:var(--color1, #dd1da7)" />
            <path fill="#ba138b"
                d="M13.542 8.173s-.19-.289 0-.558c.165-.233.515-.187.515-.187s1.199.331 2.015.325c.813-.006 1.983-.346 1.983-.346s.318-.034.49.236c.126.198.046.498.046.498s-.155.614-2.47.614c-2.301 0-2.58-.582-2.58-.582zM11.407.48v1.581l9.267.004V.378s-.006-.1-.148-.251C20.406 0 20.24 0 20.24 0h-8.438s-.118-.004-.272.176c-.123.145-.123.303-.123.303z"
                style="fill:var(--color3, #ba138b)" />
        </symbol>
        <symbol id="categories-8" viewBox="0 0 32 32">
            <path fill="#ae0b59"
                d="M2.046 26.401c.034-.852 0-2.012 0-2.012l4.235 1.204s-.553 1.133-.931 2.091c-.111.281.035.352-.228.536s-.589 0-.589 0l-2.232-.808s-.308-.096-.369-.413c-.044-.228.107-.422.114-.597z"
                style="fill:var(--color15, #ae0b59)" />
            <path fill="#c30e65"
                d="M1.923 24.916c-.062-.896.211-3.111.211-3.111s.931-7.829 3.682-12.302c1.098-1.786 1.74-2.083 1.74-2.083l2.32 1.248-.844 10.36-.51 1.239s-1.705 5.272-2.214 6.09c-.084.134-.422.123-.422.123l-3.822-1.318s-.134-.146-.141-.246z"
                style="fill:var(--color16, #c30e65)" />
            <path fill="#ae0b59"
                d="M29.954 26.392c-.034-.852 0-2.012 0-2.012l-4.235 1.204s.553 1.134.931 2.091c.111.281-.035.352.228.536s.589 0 .589 0l2.232-.808s.308-.096.369-.413c.044-.228-.107-.422-.114-.598z"
                style="fill:var(--color15, #ae0b59)" />
            <path fill="#c30e65"
                d="M30.077 24.907c.062-.896-.211-3.111-.211-3.111s-.932-7.829-3.682-12.302c-1.098-1.786-1.74-2.083-1.74-2.083l-2.32 1.248.844 10.36.51 1.239s1.705 5.272 2.214 6.09c.084.134.422.123.422.123l3.823-1.318s.134-.146.141-.246z"
                style="fill:var(--color16, #c30e65)" />
            <path fill="#ae0b59"
                d="M9.471 23.404v2.689s.017.311.264.501c.448.345.475.685 6.388.756 6.205.075 6.3-.756 6.397-.967.05-.109 0-.308 0-.308v-2.671H9.471z"
                style="fill:var(--color15, #ae0b59)" />
            <path fill="#dd1d79"
                d="M9.058 6.559c-1.38.636-1.503.861-1.503.861l.492 2.786s.457 2.364.457 2.54v7.531s.099 1.791.448 2.856c.162.493.527 1.204.527 1.204h13.067s.395-.675.589-1.494c.26-1.098.395-2.61.395-2.61v-7.539c0-.123.949-5.255.949-5.255s-.316-.334-1.529-.87c-1.18-.522-3.418-1.494-3.418-1.494h-7.065s-2.17.914-3.409 1.485z"
                style="fill:var(--color4, #dd1d79)" />
            <path fill="#ae0b59" d="m12.424 5.751-.141-2.17v-.053h7.452l.035 2.021-3.506 1.494-3.84-1.292z"
                style="fill:var(--color15, #ae0b59)" />
            <path fill="#c30e65"
                d="M12.283 3.528c-.404 0-.439.325-.439.325v2.355c0 .237 3.726 2.847 3.726 2.847v15.281h.879l.018-15.281s3.726-2.628 3.726-2.865V3.853s-.143-.294-.36-.325c-.184-.026-.299.044-.299.044L16.01 6.445l-3.462-2.803s-.123-.114-.264-.114z"
                style="fill:var(--color16, #c30e65)" />
            <path fill="#ae0b59" d="M21.808 11.814a1.696 1.696 0 1 1-3.391 0 1.696 1.696 0 0 1 3.391 0z"
                style="fill:var(--color15, #ae0b59)" />
        </symbol>
        <symbol id="categories-9" viewBox="0 0 32 32">
            <path fill="#b58405"
                d="M9.551 27.766v-1.187l12.866-.075v1.241c0 .485-1.332 2.342-6.441 2.342-5.131 0-6.425-1.972-6.425-2.321zM1.933 26.203l.484-2.718 3.234.489-.5 3.084s-.051.32-.317.5c-.235.158-.629.188-1.423.059-.699-.113-1.282-.437-1.429-.747-.115-.242-.048-.666-.048-.666z"
                style="fill:var(--color14, #b58405)" />
            <path fill="#d0990a"
                d="M2.057 23.973c0-2.563 1.88-10.191 3.567-14.344.009-.021 1.773-.591 1.773-.591l2.906 3.492-1.424 2.122s-2.473 9.066-2.82 10.014c-.36.983-1.955.639-2.321.559-1.116-.246-1.681-.817-1.681-1.252z"
                style="fill:var(--color8, #d0990a)" />
            <path fill="#b58405"
                d="m30.067 26.187-.484-2.718-3.234.489.5 3.084s.051.32.317.5c.235.159.629.188 1.423.059.698-.113 1.282-.437 1.429-.747.115-.242.048-.666.048-.666z"
                style="fill:var(--color14, #b58405)" />
            <path fill="#d0990a"
                d="M29.943 23.957c0-2.487-1.692-10.481-3.76-14.467l-1.579-.467-2.906 3.492 1.424 2.122s2.473 9.066 2.82 10.014c.36.983 1.955.639 2.321.559 1.116-.246 1.681-.817 1.681-1.252z"
                style="fill:var(--color8, #d0990a)" />
            <path fill="#dda71d"
                d="M8.621 12.745c-.568-1.687-2.998-3.116-2.998-3.116s.94-1.015 2.648-1.945c1.101-.599 2.552-1.182 2.552-1.182V3.51s.639-1.827 5.002-1.827c4.942 0 5.345 1.843 5.345 1.843v2.992s1.184.437 2.45 1.123c1.665.903 2.568 1.853 2.568 1.853s-2.031.988-2.697 2.863c-.315.887-.414 2.374-.414 2.374v11.308s-.031.677-.666 1.171c-1.767 1.375-6.645 1.375-6.645 1.375s-4.529.011-6.307-1.472c-.441-.367-.586-1.021-.586-1.021V14.698s-.007-1.226-.252-1.955z"
                style="fill:var(--color7, #dda71d)" />
            <path fill="#b58405"
                d="M15.981 2.99c-1.87-.043-2.928.994-2.928.994s1.144.972 2.928.972c1.988 0 2.992-.967 2.992-.967s-.984-.953-2.992-.999z"
                style="fill:var(--color14, #b58405)" />
            <path fill="#d0990a"
                d="M10.985 7.067c-.057-.184-.107-.548-.107-.548s.688 1.73 5.275 1.73c4.265 0 5.012-1.746 5.012-1.746s.047.355-.049.623c-.569 1.596-4.964 1.751-4.964 1.751s-4.593.054-5.168-1.81z"
                style="fill:var(--color8, #d0990a)" />
        </symbol>
        <symbol id="categories-10" viewBox="0 0 32 32">
            <path fill="#8c0000"
                d="M16.056 3.929c-3.442 0-3.705-2.092-3.705-2.092l-.615 1.789.224 2.34 4.935 2.108 4.927-4.144-2.132-2.092s-.367 2.092-3.633 2.092z"
                style="fill:var(--color17, #8c0000)" />
            <path fill="#ab0202" d="m2.05 24.092.503-2.284 3.042.655-.495 2.316-3.05-.687z"
                style="fill:var(--color18, #ab0202)" />
            <path fill="#dd1d1d" d="m6.873 4.209.934.519-.767 11.267-1.166 7.402-3.961-.847L4.676 5.509l2.196-1.302z"
                style="fill:var(--color11, #dd1d1d)" />
            <path fill="#ab0202" d="m29.95 24.085-.503-2.284-3.042.655.495 2.316 3.05-.687z"
                style="fill:var(--color18, #ab0202)" />
            <path fill="#dd1d1d" d="m25.127 4.201-.934.519.767 11.267 1.166 7.402 3.961-.846-2.763-17.041L25.128 4.2z"
                style="fill:var(--color11, #dd1d1d)" />
            <path fill="#ab0202" d="M7.935 28.069v1.964h16.114v-1.964H7.935z" style="fill:var(--color18, #ab0202)" />
            <path fill="#c90404"
                d="M6.873 28.229V4.209l4.703-2.052.559.998s2.155 2.93 4.12 2.891c2.226-.045 4.16-3.897 4.16-3.897l4.743 2.068v24.012H6.872z"
                style="fill:var(--color19, #c90404)" />
            <path fill="#ab0202"
                d="m11.4 2.237.95-.399s.08 3.546 3.857 3.546c3.034 0 3.482-3.546 3.482-3.546l.942.407s-.534 4.136-4.424 4.136c-4.424 0-4.807-4.144-4.807-4.144z"
                style="fill:var(--color18, #ab0202)" />
        </symbol>
        <symbol id="categories-11" viewBox="0 0 32 32">
            <path fill="#860061"
                d="M5.627 10.488c-.098.172-.056.446-.056.446s.086.538.573 1.598c.309.672.791 1.364.791 1.364l.035.522 1.861.867.522-.122.527-2.267-.517-.259s-.344-.553-.512-.959c-.184-.443-.375-1.192-.375-1.192s-.022-.178-.152-.314c-.203-.213-.467-.198-.467-.198l-1.907.243s-.207.061-.325.269z"
                style="fill:var(--color20, #860061)" />
            <path fill="#9e0072"
                d="m8.005 14.357.771.543.953.117.228 1.623-2.292.867-.167-.639s-1.146-.502-2.627-.502c-.71 0-.745.051-.806.066s-.269.017-.487-.066c-.218-.083-.299-.259-.299-.259l-.441-1.77s-.122-.294.142-.588c.174-.194.38-.259.38-.259h.898c2.358 0 3.748.867 3.748.867z"
                style="fill:var(--color21, #9e0072)" />
            <path fill="#dd1da7"
                d="M2.427 18.247c-.512.2-.512.796-.512.796s-.041.684.512.974c2.236 1.171 2.902 1.1 4.762 1.805 0 0 4.189 1.146 8.337 1.146 2.454 0 5.036-.35 5.036-.35l1.684-.32 6.258-2.47.127-1.947s-1.294-.408-2.135-.624c-1.003-.257-2.591-.558-2.591-.558l-1.273-4.762s-.558-1.121-1.395-1.922c-.958-.918-2.612-1.136-2.612-1.136h-5.112s-1.405.092-2.759 1.364c-.816.767-1.263 1.892-1.263 1.892l-1.182 4.574s-3.449.588-5.883 1.537z"
                style="fill:var(--color1, #dd1da7)" />
            <path fill="#ba138b"
                d="M23.792 21.234c-1.022.885-3.342 1.4-3.342 1.4s3.72.177 5.908-.588c3.104-1.085 3.727-2.338 3.727-2.977 0-.984-1.45-1.182-1.45-1.182s-1.079-.04-1.836.644c-.68.614-1.877 1.724-3.007 2.703z"
                style="fill:var(--color3, #ba138b)" />
            <path fill="#a80379"
                d="M15.967 17.75c-5.579 0-7.658-1.04-7.658-1.04l.644-2.5s1.978.776 7.039.776c5.751 0 7.237-.811 7.237-.811l.68 2.526s-1.587 1.05-7.942 1.05z"
                style="fill:var(--color22, #a80379)" />
        </symbol>
        <symbol id="categories-12" viewBox="0 0 32 32">
            <path fill="#ad0c59"
                d="M17.528.002h-5.412l-1.462 1.059v3.622l5.105 1.938 4.523-5.561L17.528.001zM9.955 29.426v-2.849h1.091v2.849s-.074.413-.551.413-.54-.413-.54-.413zM12.116 29.426v-2.849h1.091v2.849s-.074.413-.551.413-.54-.413-.54-.413zM14.287 31.587v-2.849h1.091v2.849s-.074.413-.551.413-.54-.413-.54-.413zM16.458 31.587v-2.849h1.091v2.849s-.074.413-.551.413-.54-.413-.54-.413zM18.619 31.587v-2.849h1.091v2.849s-.074.413-.551.413-.54-.413-.54-.413zM20.801 31.587v-2.849h1.091v2.849s-.074.413-.551.413-.54-.413-.54-.413zM22.962 31.587v-2.849h1.091v2.849s-.074.413-.551.413-.54-.413-.54-.413zM25.123 31.587v-2.849h1.091v2.849s-.074.413-.551.413-.54-.413-.54-.413z"
                style="fill:var(--color23, #ad0c59)" />
            <path fill="#dd1d79"
                d="M13.262 3.02C12.719 1.898 12.118.001 12.118.001S7.18.191 5.794 3.835c-.069.18-.139.339.274 1.546 1.1 3.22 3.487 6.557 3.487 6.557l.127.392 3.739 2.902.477 3.517-1.483 5.73 1.875 2.097v2.161h11.925s.225-10.931-2.815-16.269c-.899-1.578-2.034-2.5-2.034-2.5l-6.525-4.311s-1.05-1.546-1.578-2.637z"
                style="fill:var(--color4, #dd1d79)" />
            <path fill="#c71169"
                d="M9.002 13.39c0-1.027.551-1.504.551-1.504s1.631-1.652 2.807-2.966c1.176-1.313 2.479-3.273 2.479-3.273s.881-1.324 1.599-2.691c.763-1.451 1.091-2.955 1.091-2.955s2.218-.11 4.449 1.504c2.489 1.801 1.801 3.103 1.801 3.103s-1.091 3.887-4.205 8.061c-2.235 2.995-5.285 5.232-5.285 5.232v8.675H9.957s-.064-4.152 1.186-7.086c.483-1.133 1.239-2.33 1.239-2.33s-.816-.448-1.62-1.133c-.805-.685-1.451-1.525-1.451-1.525s-.307-.35-.307-1.112z"
                style="fill:var(--color24, #c71169)" />
        </symbol>
        <symbol id="about-icon" viewBox="0 0 32 32">
            <path fill="#f4efe1"
                d="M0 8.412a5.813 5.813 0 0 1 5.813-5.813h20.373a5.813 5.813 0 0 1 5.813 5.813v13.914h-32V8.412z"
                style="fill:var(--color25, #f4efe1)" />
            <path fill="#21201e"
                d="M10.486 25.34H3.015A3.015 3.015 0 0 1 0 22.325h32a3.015 3.015 0 0 1-3.015 3.015h-7.408l.871 3.696h.859A2.964 2.964 0 0 1 26.271 32H5.766a2.977 2.977 0 0 1 2.977-2.964h.847l.896-3.696z"
                style="fill:var(--color26, #21201e)" />
            <path fill="#dd1d1d" d="M4.139 22.326 5.843 6.219h13.073l.505 5.197-5.716 10.911H4.14z"
                style="fill:var(--color11, #dd1d1d)" />
            <path fill="#21201e"
                d="M8.833 8.274c-.416 0-.492-.454-.492-.454V4.477S8.518.592 12.328.58s4.013 3.897 4.013 3.897V7.82s-.038.454-.454.454c-.404 0-.492-.454-.492-.454V4.477s0-2.971-3.066-2.951c-2.89.018-3.028 2.951-3.028 2.951V7.82s-.05.454-.467.454zM25.489 12.412h4.745a.505.505 0 1 1 0 1.01h-4.745a.505.505 0 1 1 0-1.01zM26.473 14.707h3.761a.505.505 0 1 1 0 1.01h-3.761a.505.505 0 1 1 0-1.01z"
                style="fill:var(--color26, #21201e)" />
            <path fill="#dda71d" d="M13.489 11.402h9.123l1.11 10.923H12.34l1.148-10.923z"
                style="fill:var(--color7, #dda71d)" />
            <path fill="#fff"
                d="M15.94 12.916c-.44 0-.52.514-.52.514v1.605s-.093 3.13 2.612 3.139 2.642-3.16 2.642-3.16v-1.605s-.04-.514-.48-.514c-.427 0-.52.514-.52.514v1.605s.062 2.101-1.642 2.09-1.599-2.069-1.599-2.069V13.43s-.053-.514-.493-.514z"
                style="fill:var(--color27, #fff)" />
            <path fill="#dd1da7" d="M29.729 4.793c0 2.647-2.147 4.793-4.795 4.793a4.794 4.794 0 1 1 4.795-4.793z"
                style="fill:var(--color1, #dd1da7)" />
            <path fill="#fff"
                d="m24.101 7.505-1.476-2.598s-.038-.371.265-.53a.49.49 0 0 1 .555.05l.984 1.627 1.956-3.948s.303-.241.593-.076.24.542.24.542l-2.41 4.919s-.075.177-.341.177-.366-.164-.366-.164z"
                style="fill:var(--color27, #fff)" />
        </symbol>
        <symbol id="instagram" viewBox="0 0 32 32">
            <path
                d="M31.969 9.408c-.075-1.7-.35-2.869-.744-3.882a7.803 7.803 0 0 0-1.85-2.838A7.867 7.867 0 0 0 26.543.844C25.524.45 24.361.175 22.661.1 20.948.019 20.404 0 16.06 0s-4.888.019-6.595.094c-1.7.075-2.869.35-3.882.744a7.803 7.803 0 0 0-2.838 1.85A7.867 7.867 0 0 0 .901 5.52C.507 6.539.232 7.702.157 9.402c-.081 1.713-.1 2.257-.1 6.601s.019 4.888.094 6.595c.075 1.7.35 2.869.744 3.882a7.895 7.895 0 0 0 1.85 2.838 7.867 7.867 0 0 0 2.832 1.844c1.019.394 2.182.669 3.882.744 1.706.075 2.25.094 6.595.094s4.888-.019 6.595-.094c1.7-.075 2.869-.35 3.882-.744a8.181 8.181 0 0 0 4.682-4.682c.394-1.019.669-2.182.744-3.882.075-1.707.094-2.25.094-6.595s-.006-4.888-.081-6.595zm-2.881 13.065c-.069 1.563-.331 2.407-.55 2.969A5.31 5.31 0 0 1 25.5 28.48c-.563.219-1.413.481-2.969.55-1.688.075-2.194.094-6.464.094s-4.782-.019-6.464-.094c-1.563-.069-2.407-.331-2.969-.55a4.926 4.926 0 0 1-1.838-1.194 4.974 4.974 0 0 1-1.194-1.838c-.219-.563-.481-1.413-.55-2.969-.075-1.688-.094-2.194-.094-6.464s.019-4.782.094-6.464c.069-1.563.331-2.407.55-2.969a4.868 4.868 0 0 1 1.2-1.838A4.974 4.974 0 0 1 6.64 3.55c.563-.219 1.413-.481 2.969-.55 1.688-.075 2.194-.094 6.464-.094 4.276 0 4.782.019 6.464.094 1.563.069 2.407.331 2.969.55a4.914 4.914 0 0 1 1.838 1.194 4.974 4.974 0 0 1 1.194 1.838c.219.563.481 1.413.55 2.969.075 1.688.094 2.194.094 6.464s-.019 4.77-.094 6.458z" />
            <path
                d="M16.06 7.783c-4.538 0-8.22 3.682-8.22 8.22s3.682 8.22 8.22 8.22 8.22-3.682 8.22-8.22-3.682-8.22-8.22-8.22zm0 13.552a5.333 5.333 0 0 1 0-10.664 5.333 5.333 0 0 1 0 10.664zM26.524 7.457a1.919 1.919 0 1 1-3.838 0 1.919 1.919 0 0 1 3.838 0z" />
        </symbol>
        <symbol id="linkedin" viewBox="0 0 32 32">
            <path
                d="M31.992 32v-.001H32V20.263c0-5.741-1.236-10.164-7.948-10.164-3.227 0-5.392 1.771-6.276 3.449h-.093v-2.913h-6.364v21.364h6.627V21.42c0-2.785.528-5.479 3.977-5.479 3.399 0 3.449 3.179 3.449 5.657v10.401h6.62zM.528 10.636h6.635V32H.528V10.636zM3.843 0C1.722 0 0 1.721 0 3.843s1.721 3.879 3.843 3.879c2.121 0 3.843-1.757 3.843-3.879A3.846 3.846 0 0 0 3.843 0z" />
        </symbol>
        <symbol id="twitter" viewBox="0 0 32 32">
            <path
                d="M32 6.078c-1.19.522-2.458.868-3.78 1.036a6.523 6.523 0 0 0 2.886-3.626 13.11 13.11 0 0 1-4.16 1.588A6.574 6.574 0 0 0 22.154 3c-3.632 0-6.556 2.948-6.556 6.562 0 .52.044 1.02.152 1.496-5.454-.266-10.28-2.88-13.522-6.862a6.605 6.605 0 0 0-.898 3.316 6.57 6.57 0 0 0 2.914 5.452 6.479 6.479 0 0 1-2.964-.808v.072c0 3.188 2.274 5.836 5.256 6.446a6.548 6.548 0 0 1-1.72.216 5.8 5.8 0 0 1-1.242-.112c.85 2.598 3.262 4.508 6.13 4.57a13.182 13.182 0 0 1-8.134 2.798c-.538 0-1.054-.024-1.57-.09A18.469 18.469 0 0 0 10.064 29c12.072 0 18.672-10 18.672-18.668 0-.29-.01-.57-.024-.848A13.087 13.087 0 0 0 32 6.078z" />
        </symbol>
        <symbol id="close" viewBox="0 0 32 32">
            <path stroke-width="3.333" d="m1.333 1.333 29.333 29.333m.001-29.333L1.334 30.666" />
        </symbol>
    </defs>
</svg>