<svg xmlns="http://www.w3.org/2000/svg" width="15" height="14" fill="none">
    <path fill="url(#a)"
        d="m1.094 5.8-.573.485a.057.057 0 0 0-.02.044c-.021.214-.092.42-.207.603l-.041.065c-.075.119-.135.247-.177.381l-.069.218a.158.158 0 0 0 .04.16l.025.025.023.018a.17.17 0 0 1 .06.102c.006.031.02.06.04.084.028.035.057.077.052.095a.49.49 0 0 1-.056.113l-.013.016a.15.15 0 0 0 .013.204l.084.08a.2.2 0 0 1 0 .258l-.11.132a.116.116 0 0 0 .01.16l.02.018c.01.01.02.02.027.031l.057.09a.292.292 0 0 0 .04.048c.055.055.087.13.087.208v.027c0 .03-.008.061-.023.088a.185.185 0 0 0-.02.112l.005.04c.01.071.044.138.098.186l.044.04c.06.054.104.122.13.199l.02.062a.716.716 0 0 1 .032.147l.019.17a.306.306 0 0 0 .26.268l.127.02c.043.005.081.028.107.063.025.033.06.055.1.063l.074.014a.36.36 0 0 1 .16.076l.182.15c.05.04.108.067.171.077.11.019.204.086.258.183l.114.205a.38.38 0 0 0 .29.193.38.38 0 0 1 .312.244l.106.284a.071.071 0 0 1-.03.085.072.072 0 0 0-.033.062v.061c0 .05.02.096.055.13l.227.222a.24.24 0 0 0 .167.068.24.24 0 0 1 .227.162l.005.016c.031.09.108.157.202.174l.137.025c.03.006.06.008.09.008h.251l.287-.022a.35.35 0 0 1 .19.04.35.35 0 0 0 .087.032l.052.011a.753.753 0 0 0 .309.005l.404-.08.867-.279c.142-.046.288-.08.435-.101l.287-.043a.358.358 0 0 1 .328.126l.258.313c.04.048.09.089.146.118l.052.027c.06.032.109.083.137.145.026.06.072.11.129.141l.164.092a.87.87 0 0 0 .436.11l.739-.01a.23.23 0 0 0 .212-.15.23.23 0 0 1 .208-.15l.06-.002a.301.301 0 0 1 .168.045l.03.018a.182.182 0 0 0 .22-.024l.065-.063a.273.273 0 0 1 .356-.02l.056.043a.17.17 0 0 0 .103.036h.01c.04 0 .08-.018.108-.048a.147.147 0 0 1 .109-.048h.282a.44.44 0 0 0 .307-.124.441.441 0 0 1 .208-.113l.073-.017a.71.71 0 0 0 .37-.216l.064-.072.436-.398.225-.251a.886.886 0 0 0 .183-.32l.06-.183a.324.324 0 0 0-.005-.21.325.325 0 0 1 .003-.23l.046-.119.115-.234a.709.709 0 0 0 .073-.312v-.1a.397.397 0 0 0-.074-.23.396.396 0 0 1-.072-.192l-.017-.176a.24.24 0 0 0-.045-.118l-.016-.023a.174.174 0 0 1-.032-.131l.002-.007a.16.16 0 0 1 .08-.114.161.161 0 0 0 .083-.153l-.01-.129a.359.359 0 0 1 .101-.279.357.357 0 0 0 .036-.042l.199-.279c.076-.14.13-.293.16-.45l.007-.034c.02-.106.029-.214.025-.322l-.006-.153a.345.345 0 0 1 .01-.097l.04-.16a.145.145 0 0 1 .15-.109l.06.004a.076.076 0 0 0 .079-.061.076.076 0 0 1 .036-.05l.067-.04a.23.23 0 0 0 .115-.199v-.104c0-.037.024-.07.06-.081a.085.085 0 0 0 .058-.071l.007-.059v-.582c0-.065.03-.126.08-.166a.212.212 0 0 0 .078-.196l-.04-.278-.035-.565-.034-.248a.644.644 0 0 0-.033-.134l-.022-.06a.32.32 0 0 0-.065-.108l-.04-.043a.21.21 0 0 0-.182-.066l-.065.009a.152.152 0 0 1-.17-.18c.032-.165.088-.471.076-.478a2.705 2.705 0 0 1-.084-.065.42.42 0 0 1-.162-.332.422.422 0 0 0-.009-.087l-.035-.169a.23.23 0 0 0-.157-.172.23.23 0 0 1-.128-.1l-.051-.083a.488.488 0 0 0-.267-.21l-.18-.058-.24-.045-.128-.038a.945.945 0 0 0-.27-.04h-.352a.182.182 0 0 0-.138.063.182.182 0 0 1-.13.064l-.23.009a.258.258 0 0 1-.268-.242.26.26 0 0 0-.007-.048l-.067-.266a.69.69 0 0 0-.092-.21.69.69 0 0 1-.11-.316l-.028-.304a.229.229 0 0 0-.195-.205l-.28-.04a.904.904 0 0 1-.153-.037l-.087-.029a1.022 1.022 0 0 0-.32-.051h-.149c-.03 0-.07.01-.098.02C9.81.84 9.657.736 9.641.578L9.637.533a.273.273 0 0 0-.106-.19L9.213.1a.26.26 0 0 0-.277-.025.26.26 0 0 1-.07.024l-.163.032a.436.436 0 0 1-.278-.04.436.436 0 0 0-.277-.038l-.074.013a.658.658 0 0 0-.398.244l-.252.325a.42.42 0 0 1-.488.133.42.42 0 0 0-.43.071l-.139.119a.198.198 0 0 1-.201.033.198.198 0 0 0-.073-.013H6.01a.63.63 0 0 0-.24.047l-.342.142c-.281.116-.58.18-.884.188l-.307.008a.657.657 0 0 1-.18-.02l-.157-.04a.288.288 0 0 0-.23.038.289.289 0 0 1-.123.046l-.384.045a.276.276 0 0 0-.212.147l-.03.059a.167.167 0 0 1-.15.09.167.167 0 0 0-.16.119l-.012.042a.226.226 0 0 1-.14.147l-.029.01a.288.288 0 0 0-.19.245l-.002.038a.27.27 0 0 1-.136.211.27.27 0 0 0-.136.216l-.002.022a.27.27 0 0 1-.23.248.27.27 0 0 0-.213.168l-.297.752c-.047.12-.075.248-.08.377l-.01.186a.621.621 0 0 0 .108.38.621.621 0 0 1 .096.47l-.007.037a.71.71 0 0 1-.237.404Z" />
    <defs>
        <radialGradient id="a" cx="0" cy="0" r="1" gradientTransform="matrix(0 7 -7.5 0 7.5 7)"
            gradientUnits="userSpaceOnUse">
            <stop stop-color="#916800" />
            <stop offset=".719" stop-color="#DDA71D" />
        </radialGradient>
    </defs>
</svg>